<svg width="59" height="62" viewBox="0 0 59 62" fill="none" xmlns="http://www.w3.org/2000/svg">
<path d="M3.8584 50.8525L8.34277 46.1357H6.79785L2.55957 50.6816H2.50488V46.1357H1.27441V56H2.50488V51.208H2.55957L7.1123 56H8.80078L3.8584 50.8525ZM12.335 56.123C14.2969 56.123 15.623 54.708 15.623 52.4453C15.623 50.1758 14.2969 48.7676 12.335 48.7676C10.3662 48.7676 9.04004 50.1758 9.04004 52.4453C9.04004 54.708 10.3662 56.123 12.335 56.123ZM12.335 55.0771C11.0771 55.0771 10.25 54.1201 10.25 52.4453C10.25 50.7705 11.0771 49.8135 12.335 49.8135C13.5928 49.8135 14.4131 50.7705 14.4131 52.4453C14.4131 54.1201 13.5928 55.0771 12.335 55.0771ZM21.625 56H22.8008V48.8906H21.625V51.8232H18.1182V48.8906H16.9424V56H18.1182V52.8008H21.625V56ZM29.6777 48.8906H23.9082V49.8682H26.2051V56H27.3809V49.8682H29.6777V48.8906ZM32.8564 55.1113C32.002 55.1113 31.4346 54.667 31.4346 53.9902C31.4346 53.3203 31.9814 52.8965 32.9385 52.835L34.8389 52.7188V53.2998C34.8389 54.3252 33.9775 55.1113 32.8564 55.1113ZM32.5898 56.123C33.5469 56.123 34.4492 55.5898 34.873 54.7764H34.9004V56H36.0283V51.085C36.0283 49.6699 34.9756 48.7676 33.3076 48.7676C31.626 48.7676 30.5732 49.7109 30.4912 50.9414H31.6396C31.79 50.2441 32.3643 49.8135 33.2803 49.8135C34.2646 49.8135 34.8389 50.333 34.8389 51.2012V51.7959L32.8018 51.9121C31.1611 52.0078 30.2246 52.7734 30.2246 53.9902C30.2246 55.2686 31.1748 56.123 32.5898 56.123ZM40.082 52.2539L43.4043 48.8906H41.9346L38.8994 52.0352H38.8447V48.8906H37.6689V56H38.8447V52.582H38.8994L41.9688 56H43.5L40.082 52.2539ZM49.5566 48.8906H43.7871V49.8682H46.084V56H47.2598V49.8682H49.5566V48.8906ZM56.7412 56H57.917V48.8906H56.7412V56ZM53.1592 52.1377C54.0752 52.1377 54.6768 52.7051 54.6768 53.5801C54.6768 54.4482 54.082 55.0225 53.1592 55.0225H51.833V52.1377H53.1592ZM50.6572 56H53.1797C54.8066 56 55.8525 55.0635 55.8525 53.5801C55.8525 52.0967 54.8066 51.1602 53.1797 51.1602H51.833V48.8906H50.6572V56Z" fill="#1D3654"/>
<g clip-path="url(#clip0_9_8246)">
<path d="M19.6121 8.22626C19.6121 12.7681 23.5928 16.4491 28.5006 16.4491C33.4084 16.4491 37.3879 12.7681 37.3879 8.22626C37.3879 3.68445 33.4096 0 28.5006 0C23.5916 0 19.6121 3.68104 19.6121 8.22626Z" fill="#1C3555"/>
<path d="M23.3557 17.2109C18.7413 17.2109 15 21.574 15 26.9538V31.6812H41.9988V26.9538C41.9988 21.574 38.2599 17.2109 33.6443 17.2109H23.3557ZM31.8053 30.0086H25.1888L23.2724 18.2721C23.4613 18.2562 23.6479 18.2402 23.8392 18.2402H33.1596C33.3509 18.2402 33.5375 18.2562 33.7276 18.2721L31.8053 30.0086Z" fill="#1C3555"/>
<path d="M26.4233 30.0086H30.5766L29.5473 22.1182H29.5462H29.5121L30.5226 19.9526H26.4773L27.4889 22.1182H27.4537L26.4233 30.0086Z" fill="#EC1C24"/>
</g>
<defs>
<clipPath id="clip0_9_8246">
<rect width="27" height="31.6811" fill="white" transform="translate(15)"/>
</clipPath>
</defs>
</svg>
